<svg version="1.1" id="Layer_1" xmlns="http://www.w3.org/2000/svg" x="0" y="0" viewBox="0 0 432 133.432" xml:space="preserve"><style>.st0{fill:#2b323d}</style><path class="st0" d="M60.412 110.886c-5.829 0-11.657-.006-17.486.006-.892.002-1.293-.285-1.25-1.27.217-4.962.11-9.928.066-14.892-.015-1.603-.06-1.568 1.588-1.567 11.261.006 22.523.001 33.785-.021.843-.002 1.32.223 1.259 1.15-.023.348-.08.76.374.907.4.13.676-.144.955-.372 1.809-1.48 3.612-2.966 5.43-4.433.64-.515.805-.93.024-1.506-1.937-1.43-3.829-2.921-5.744-4.382-.306-.233-.61-.624-1.03-.44-.416.184-.226.634-.2.973.06.75-.29 1.055-1.014 1.036-5.827-.15-11.667.14-17.479-.32-2.925-.233-5.652-1.394-8.087-3.059-6.68-4.567-10.212-10.848-9.765-19.02.478-8.758 6.223-16.48 15.219-18.978 1.613-.448 3.336-.51 5.033-.512 10.327-.005 20.654-.013 30.98-.025.647 0 1.294-.027 1.94-.07.81-.052 1.232.307 1.233 1.12.009 4.928.007 9.856.022 14.785.003.934-.445 1.239-1.344 1.236-8.06-.026-16.12-.082-24.178.003-2.586.027-5.176.15-7.766.138-1.244-.006-1.439-.213-1.338-1.45.023-.284.128-.606-.171-.787-.36-.218-.612.072-.842.285-1.873 1.738-3.8 3.41-5.883 4.897-.552.393-.476.782.04 1.207 1.972 1.622 3.92 3.272 5.882 4.905.24.2.496.486.852.292.349-.19.288-.56.244-.872-.106-.754 0-1.268.955-1.255 4.497.063 8.995.072 13.49.087 4.322.015 8.01 1.63 11.38 4.055 3.661 2.633 6.259 6.194 7.554 10.51 1.92 6.399 1.212 12.546-2.608 18.141-3.242 4.747-7.727 7.783-13.361 8.96-2.72.568-5.52.374-8.289.4-3.49.033-6.98.008-10.47.008v.13z"/><path class="st0" d="M34.278 85.983c0 7.917-.01 15.834.015 23.75.003.873-.373 1.14-1.157 1.136-4.93-.03-9.859-.058-14.789-.062-.912-.001-1.373-.255-1.37-1.291.058-14.681-.012-29.364.176-44.043.056-4.453.405-8.93 1.742-13.279 1.92-6.242 4.863-11.877 9.106-16.85 5.029-5.892 11.142-10.26 18.337-13.086 4.65-1.826 9.434-2.885 14.506-2.813 10.398.147 20.8.078 31.2.09a40.08 40.08 0 0 0 2.694-.093c1.054-.07 1.367.202 1.363 1.263-.019 4.354-.04 8.708-.053 13.062-.01 2.874-.005 2.856-2.894 2.849-10.435-.028-20.87-.055-31.306.036-8.122.072-14.544 3.306-19.922 9.174-3.523 3.845-5.74 8.26-6.858 13.342-.61 2.776-.758 5.551-.77 8.354-.027 6.153-.009 12.307-.009 18.46h-.01zm67.88-8.137c0-18.07 12.662-33.369 33.633-33.369 21.102 0 33.764 15.3 33.764 33.369 0 18.07-12.662 33.5-33.764 33.5-20.971 0-33.633-15.43-33.633-33.5zm49.987 0c0-9.892-5.803-18.465-16.354-18.465-10.42 0-16.223 8.573-16.223 18.465 0 10.024 5.803 18.597 16.223 18.597 10.551 0 16.354-8.573 16.354-18.597zm22.55 0c0-19.52 14.244-33.369 33.764-33.369 13.057 0 20.97 5.672 25.191 11.475l-10.946 10.287c-3.034-4.484-7.65-6.858-13.453-6.858-10.156 0-17.279 7.386-17.279 18.465s7.123 18.597 17.279 18.597c5.803 0 10.42-2.638 13.453-6.99L233.65 99.74c-4.22 5.803-12.134 11.606-25.19 11.606-19.52 0-33.765-13.848-33.765-33.5zm107.884 31.918l-16.882-24.532-7.65 8.177v16.355h-16.75V21.792h16.75v52.625l24.136-28.357h20.575l-25.191 28.884 25.983 34.82h-20.971zm21.1-31.918c0-18.465 13.717-33.369 32.973-33.369 19.124 0 31.918 14.245 31.918 34.952v3.956h-47.35c1.188 7.782 7.518 14.245 18.333 14.245 5.408 0 12.794-2.242 16.883-6.2l7.517 11.08c-6.33 5.803-16.354 8.836-26.246 8.836-19.388 0-34.028-13.057-34.028-33.5zm32.973-19.652c-10.42 0-14.904 7.254-15.564 13.585h31.39c-.527-6.067-4.747-13.585-15.826-13.585zm44.18 35.611V60.7H370.28V46.06h10.552V28.65h16.75v17.41h12.925V60.7h-12.925v28.62c0 4.09 2.11 7.123 5.803 7.123 2.506 0 4.88-.924 5.803-1.979l3.561 12.794c-2.506 2.242-6.99 4.088-13.98 4.088-11.738 0-17.937-6.067-17.937-17.541z"/></svg>