<?xml version="1.0" encoding="utf-8"?>
<!-- Generator: Adobe Illustrator 23.0.3, SVG Export Plug-In . SVG Version: 6.00 Build 0)  -->
<svg version="1.1" id="Layer_1" xmlns="http://www.w3.org/2000/svg" xmlns:xlink="http://www.w3.org/1999/xlink" x="0px" y="0px"
	 viewBox="0 0 500 500" style="enable-background:new 0 0 500 500;" xml:space="preserve">
<style type="text/css">
	.st0{fill:#5F2C8A;}
	.st1{fill:#B04298;}
	.st2{fill:#ED2490;}
	.st3{fill:#EAEAEA;}
	.st4{fill:url(#SVGID_1_);}
</style>
<g>
	<path class="st0" d="M262.9,452.1c-4-2.6-8.8-4-13.9-4c-6,0-11.7,2.2-16.1,5.7c-6,4.8-9.7,12.1-9.7,20.3c0,3.3,0.5,6.2,1.6,9.1
		c3.7,9.9,13.2,16.8,24.3,16.8c12.3,0,22.5-8.4,25.2-19.9c0.5-2,0.7-4,0.7-6C275,464.9,270,456.6,262.9,452.1z"/>
	<path class="st1" d="M450.6,333.3c-1.8-0.4-3.8-0.5-5.7-0.5c-3.5,0-7,0.7-10.1,2.2c-7.5,3.1-13.4,9.7-15.2,18.1
		c-0.7,3.1-0.7,6-0.4,9c1.3,10.4,9.1,19.6,20.1,22c0.4,0.2,0.9,0.2,1.3,0.2c1.5,0.2,2.9,0.4,4.4,0.4c11.9,0,22.7-8.2,25.2-20.3
		c1.8-8.2-0.4-16.5-5.5-22.3C461.2,337.7,456.4,334.6,450.6,333.3z"/>
	<path class="st2" d="M434.7,154.8c1.5,0.7,3.1,1.1,4.8,1.5c1.8,0.4,3.8,0.5,5.7,0.5c7.7,0,15-3.5,19.8-9.3c2.6-3.1,4.6-6.8,5.5-11
		c3.1-13.9-5.7-27.8-19.6-30.9c-1.8-0.4-3.8-0.5-5.7-0.5c-1.1,0-2.2,0.2-3.5,0.4c-10.4,1.5-19.4,9.1-22,19.9
		c-0.2,0.5-0.2,1.1-0.4,1.6C417.5,138.7,423.9,150.2,434.7,154.8z"/>
	<path class="st3" d="M334.8,258.5c0-4.6,0.2-9.3,0.2-14.1c0-4.8,0-9.3-0.2-14.1c6.6,4.8,13,9.3,19,14.1l0,0
		c8.2-6.2,15.9-12.4,22.9-18.7c-13.4-10.6-28-21-43.5-31.3c-1.1-18.5-2.9-36.4-5.3-53.2c-8.8,3.1-18.1,6.6-27.6,10.6
		c0.9,7.7,1.8,15.6,2.6,23.6c-4-2.4-8-4.8-12.1-7.1c-4-2.4-8-4.6-12.3-7c-10.4,4.8-21,9.9-31.7,15.6c9.7,5.1,19.6,10.4,29.6,16.3
		c9.9,5.7,19.6,11.5,28.9,17.6c0.5,11,0.7,22.3,0.7,33.7c0,11.3-0.2,22.7-0.7,33.7C315.6,271.7,325.5,265.1,334.8,258.5L334.8,258.5
		z"/>
	<path class="st3" d="M273,438.2c8.8,5.9,15.2,14.8,17.9,25.2c10.2-13.9,18.8-33.5,25.8-58.9c2.4-9,4.6-18.3,6.6-28.4
		c-8.8-2.9-17.9-6.4-27.3-10.1C290.1,396.8,282.1,421.7,273,438.2z"/>
	<path class="st3" d="M328,347.6c2.4-16.8,4.2-34.8,5.3-53.2c-9.7,6.4-19.9,12.8-30.4,19.2c-0.7,8-1.6,15.9-2.6,23.6
		C309.9,340.8,319.1,344.5,328,347.6L328,347.6z"/>
	<path class="st3" d="M191,313.4c4,2.4,8,4.8,12.1,7.1c4,2.4,8,4.6,12.3,7l0,0c10.4-4.8,21-9.9,31.7-15.6
		c-9.7-5.1-19.6-10.4-29.6-16.3c-9.9-5.7-19.6-11.5-28.9-17.6C189.2,290.3,189.9,302,191,313.4L191,313.4z"/>
	<path class="st3" d="M399.2,244.4c-7,6.2-14.5,12.4-22.5,18.7c23.8,20.3,41.3,39.7,51,56c5.3-2.2,11.2-3.5,17.2-3.5l0,0
		c3.1,0,6.4,0.4,9.5,1.1c1.6,0.4,3.3,0.9,4.9,1.5c-6.8-16.3-19.8-34.2-39-53.6C414,257.8,406.9,251.2,399.2,244.4z"/>
	<path class="st3" d="M140.3,244.4C140.1,244.4,140.1,244.4,140.3,244.4C140.1,244.4,140.1,244.4,140.3,244.4L140.3,244.4z"/>
	<path class="st3" d="M169.8,370.7c-1.5-7.5-2.6-15.2-3.8-23.1c-30,10.6-56.2,16.3-75,16.3c-15.4,0-26.2-3.7-30.6-11.5
		c-10.1-17.6,13.2-51.6,56.9-89.3c13.4,10.6,28,21,43.5,31.3l0,0c-0.4-5.5-0.5-11.2-0.9-16.8c-0.2-6.2-0.4-12.6-0.5-19
		c-5.9-4.2-11.5-8.4-17.2-12.6c-0.7-0.5-1.3-0.9-2-1.5l-22.9-18.7c-1.1-0.9-2-1.8-2.9-2.6c-41.9-36.6-63.8-69.5-54-86.5
		c4.6-7.9,15.4-11.5,30.6-11.5c19,0,45,5.7,75,16.3c-2.4,16.8-4.2,34.8-5.3,53.2c9.7-6.4,19.9-12.8,30.4-19.2l0,0
		c0.7-8,1.6-15.9,2.6-23.6c7.1,2.9,14.3,6.2,21.8,9.5l0,0c10.6-5.9,21.2-11.5,31.7-16.6c-16.6-8.2-33.1-15.6-48.8-22
		c10.6-56.7,28.5-94,48.8-94s38.2,37.3,48.8,94c9.3-3.7,18.5-7.1,27.3-10.1c-2-9.9-4.2-19.4-6.6-28.4C301.1,28.4,277.7,0,247,0
		s-54.2,28.4-69.5,84.3c-2.4,9-4.6,18.3-6.6,28.4c-31.1-10.6-58.7-16.3-79.9-16.3l0,0c-33.5,0-48.7,14.1-55.6,25.8
		c-15.4,26.7-2.6,61.1,38.2,102.5c6.4,6.6,13.5,13.2,21.2,19.8c-7.7,6.6-14.6,13.4-21.2,19.8c-40.6,41.3-53.6,75.7-38.2,102.5
		c6.8,11.9,22,26,55.6,26c21.2,0,48.8-5.9,79.9-16.3l0,0C170.5,374.3,170.1,372.5,169.8,370.7z"/>
	
		<linearGradient id="SVGID_1_" gradientUnits="userSpaceOnUse" x1="364.0577" y1="438.4933" x2="200.4512" y2="19.7207" gradientTransform="matrix(1 0 0 -1 0 501)">
		<stop  offset="0" style="stop-color:#ED2490"/>
		<stop  offset="1" style="stop-color:#582D8C"/>
	</linearGradient>
	<path class="st4" d="M408.5,381.8c-3.5-5.5-5.7-11.7-6.4-17.9c-18.8-0.2-44.6-5.9-74.1-16.3l0,0c-8.8-3.1-18.1-6.6-27.6-10.6l0,0
		c-7.1-2.9-14.3-6.2-21.8-9.5c4-2.2,8-4.6,12.3-7c4-2.4,8-4.8,12.1-7.1c10.4-6.2,20.5-12.6,30.4-19.2c15.6-10.2,30-20.7,43.5-31.3
		c7.9-6.2,15.4-12.4,22.5-18.7c7.7-6.6,14.6-13.4,21.2-19.8c18.7-19,31.5-36.4,38.4-52.3c-4.4,1.5-9,2.2-13.7,2.2
		c-3.1,0-6.4-0.4-9.5-1.1c-2.6-0.5-5.3-1.5-7.9-2.6c-0.2,0-0.2-0.2-0.4-0.2c-9.7,16.1-27.1,35.1-50.5,55.3l0,0
		c-7.1,6-14.8,12.3-22.9,18.7l0,0c-6,4.8-12.4,9.3-19,14.1l0,0c-9.3,6.6-19,13.2-29.3,19.8l0,0c-9.3,5.9-18.8,11.7-28.9,17.6
		c-9.9,5.7-19.8,11.2-29.6,16.3l0,0c-10.8,5.7-21.4,10.8-31.7,15.6l0,0c-7.3,3.5-14.6,6.6-21.8,9.5c-0.9-7.7-1.8-15.6-2.6-23.6l0,0
		c-1.1-11.3-1.8-23.1-2.4-35.3l0,0c-0.5-11-0.7-22.3-0.7-33.7c0-11.3,0.2-22.7,0.7-33.7c9.3-5.9,18.8-11.7,28.9-17.6
		c9.9-5.7,19.8-11.2,29.6-16.3c10.8-5.7,21.4-10.8,31.7-15.6c7.3-3.5,14.6-6.6,21.8-9.5c9.5-4,18.7-7.5,27.6-10.6
		c29.5-10.4,55.1-16.1,73.9-16.3c0-0.4,0-0.5,0.2-0.9c0.2-1.1,0.4-1.8,0.5-2.7c2.2-9.7,7.7-18.1,15-24.1c-4.4-0.5-9.3-0.9-14.5-1.1
		l0,0l0,0c0,0,0,0-0.2,0h-0.2l0,0c-21.2,0-48.7,5.9-79.6,16.3l0,0c-8.8,2.9-17.9,6.4-27.3,10.1l0,0c-15.7,6.4-32.2,13.7-48.8,22l0,0
		c-10.4,5.1-21,10.8-31.7,16.6l0,0c-4,2.2-8,4.6-12.3,7c-4,2.4-8,4.8-12.1,7.1l0,0c-10.4,6.2-20.5,12.6-30.4,19.2l0,0
		c-15.4,10.2-30,20.9-43.5,31.3l22.9,18.7l0,0c6-4.6,12.4-9.3,19-13.9c0,4.6-0.2,9.3-0.2,14.1c0,4.8,0,9.3,0.2,14.1
		c0.2,6.4,0.4,12.6,0.5,19c0.2,5.7,0.5,11.3,0.9,16.8l0,0c1.1,18.5,2.9,36.4,5.3,53.2c1.1,7.9,2.4,15.6,3.8,23.1
		c0.4,1.8,0.7,3.8,1.1,5.7l0,0c2,9.9,4.2,19.4,6.6,28.4c7.7,27.8,17.4,48.8,28.9,62.9c1.6-11,7.5-20.7,15.9-27.3
		c-9.7-16.5-18.1-42.3-24-74.1c15.7-6.4,32.2-13.7,48.8-22c16.6,8.2,33.1,15.6,48.8,22c9.3,3.7,18.5,7.1,27.3,10.1
		c31.1,10.6,58.7,16.3,79.9,16.3c5.1,0,9.7-0.4,14.1-0.9C413.8,388.8,410.9,385.5,408.5,381.8z"/>
</g>
</svg>
