<?xml version="1.0" encoding="UTF-8"?> <!-- Generator: Adobe Illustrator 23.0.2, SVG Export Plug-In . SVG Version: 6.00 Build 0) --> <svg xmlns="http://www.w3.org/2000/svg" xmlns:xlink="http://www.w3.org/1999/xlink" id="Layer_1" x="0px" y="0px" viewBox="0 0 400 245" style="enable-background:new 0 0 400 245;" xml:space="preserve"> <style type="text/css"> .st0{fill:#3C5A9A;} </style> <g> <path class="st0" d="M205.9,121.4c-3.3,0-5.6,1.1-8,2.2v24.8c2.3,0.2,3.6,0.2,5.8,0.2c7.9,0,9-3.6,9-8.6v-11.9 C212.6,124.4,211.4,121.4,205.9,121.4L205.9,121.4z M153.6,120c-5.5,0-6.7,3-6.7,6.7v2.1h13.4v-2.1C160.3,123,159,120,153.6,120z M52.2,145.8c0,2.9,1.4,4.5,4.4,4.5c3.3,0,5.2-1.1,7.6-2.2v-5.9h-7.2C53.7,142.3,52.2,142.9,52.2,145.8L52.2,145.8z M256.8,121.4 c-5.5,0-7.4,3-7.4,6.7v13.6c0,3.7,1.9,6.7,7.4,6.7c5.5,0,7.4-3,7.4-6.7v-13.6C264.2,124.4,262.3,121.4,256.8,121.4z M25.4,161.1 H9.3v-39h-8v-13.4h8v-8.1c0-11,4.5-17.5,17.4-17.5h10.7v13.4h-6.7c-5,0-5.4,1.9-5.4,5.4l0,6.7h12.2l-1.4,13.4H25.4L25.4,161.1 L25.4,161.1z M80.4,161.2H67l-0.6-3.4c-6.1,3.4-11.6,3.9-15.2,3.9c-9.8,0-15.1-6.6-15.1-15.7c0-10.7,6.1-14.6,17-14.6h11.1v-2.3 c0-5.5-0.6-7.1-9-7.1H41.5l1.3-13.4h15c18.5,0,22.5,5.8,22.5,20.6L80.4,161.2L80.4,161.2z M126,123.1c-8.3-1.4-10.7-1.7-14.8-1.7 c-7.2,0-9.4,1.6-9.4,7.7v11.6c0,6.1,2.2,7.7,9.4,7.7c4,0,6.4-0.3,14.8-1.8v13.1c-7.3,1.6-12.1,2.1-16.1,2.1 c-17.3,0-24.2-9.1-24.2-22.2v-9.4c0-13.1,6.9-22.2,24.2-22.2c4,0,8.8,0.4,16.1,2.1V123.1L126,123.1z M176.4,139.6h-29.5v1.1 c0,6.1,2.2,7.7,9.4,7.7c6.5,0,10.4-0.3,18.8-1.8v13.1c-8,1.6-12.2,2.1-20.1,2.1c-17.3,0-24.2-9.1-24.2-22.2v-10.8 c0-11.5,5.1-20.9,22.8-20.9s22.8,9.3,22.8,20.9V139.6z M228.7,139.8c0,12.7-3.6,21.9-25.6,21.9c-7.9,0-12.6-0.7-21.3-2V87.2 l16.1-2.7v25.4c3.5-1.3,8-1.9,12.1-1.9c16.1,0,18.8,7.2,18.8,18.8L228.7,139.8L228.7,139.8z M280.3,140.1 c0,10.9-4.5,21.6-23.4,21.6c-18.9,0-23.5-10.6-23.5-21.6v-10.6c0-11,4.6-21.6,23.5-21.6c18.9,0,23.4,10.6,23.4,21.6V140.1 L280.3,140.1z M331.8,140.1c0,10.9-4.5,21.6-23.4,21.6c-18.9,0-23.5-10.6-23.5-21.6v-10.6c0-11,4.6-21.6,23.5-21.6 c18.9,0,23.4,10.6,23.4,21.6V140.1L331.8,140.1z M384.7,161.1h-17.4l-14.8-24.6v24.6h-16.1V87.2l16.1-2.7v47.6l14.8-23.4h17.4 l-16.1,25.5L384.7,161.1z M308.3,121.4c-5.5,0-7.4,3-7.4,6.7v13.6c0,3.7,1.9,6.7,7.4,6.7c5.5,0,7.4-3,7.4-6.7v-13.6 C315.7,124.4,313.8,121.4,308.3,121.4L308.3,121.4z M393.9,151.9c2.7,0,4.9,2.2,4.9,5c0,2.8-2.2,5-4.9,5c-2.7,0-4.9-2.2-4.9-5 C389,154.1,391.2,151.9,393.9,151.9L393.9,151.9z M393.9,152.7c-2.2,0-4,1.9-4,4.2c0,2.4,1.8,4.2,4,4.2c2.2,0,4-1.9,4-4.2 S396.1,152.7,393.9,152.7L393.9,152.7z M393,159.7h-0.9v-5.5c0.5-0.1,0.9-0.1,1.6-0.1c0.8,0,1.4,0.2,1.7,0.4 c0.3,0.2,0.5,0.6,0.5,1.1c0,0.7-0.5,1.2-1.1,1.4v0c0.5,0.1,0.8,0.5,0.9,1.3c0.1,0.9,0.3,1.2,0.3,1.4h-0.9c-0.1-0.2-0.3-0.7-0.4-1.4 c-0.1-0.7-0.5-1-1.2-1H393L393,159.7L393,159.7z M393,156.7h0.6c0.7,0,1.3-0.3,1.3-1c0-0.5-0.3-1-1.3-1c-0.3,0-0.5,0-0.6,0V156.7 L393,156.7z"></path> </g> </svg> 