<?xml version="1.0" encoding="UTF-8" standalone="no"?>
<!-- Generator: Adobe Illustrator 19.2.0, SVG Export Plug-In . SVG Version: 6.00 Build 0)  -->

<svg
   xmlns:dc="http://purl.org/dc/elements/1.1/"
   xmlns:cc="http://creativecommons.org/ns#"
   xmlns:rdf="http://www.w3.org/1999/02/22-rdf-syntax-ns#"
   xmlns:svg="http://www.w3.org/2000/svg"
   xmlns="http://www.w3.org/2000/svg"
   xmlns:sodipodi="http://sodipodi.sourceforge.net/DTD/sodipodi-0.dtd"
   xmlns:inkscape="http://www.inkscape.org/namespaces/inkscape"
   version="1.1"
   id="t1485119289044"
   x="0px"
   y="0px"
   viewBox="0 0 416.39999 99.999999"
   xml:space="preserve"
   inkscape:version="0.91+devel+osxmenu r12922"
   sodipodi:docname="netifi.svg"
   width="416.39999"
   height="100"><metadata
     id="metadata4153"><rdf:RDF><cc:Work
         rdf:about=""><dc:format>image/svg+xml</dc:format><dc:type
           rdf:resource="http://purl.org/dc/dcmitype/StillImage" /><dc:title></dc:title></cc:Work></rdf:RDF></metadata><defs
     id="defs4151" /><sodipodi:namedview
     pagecolor="#ffffff"
     bordercolor="#666666"
     borderopacity="1"
     objecttolerance="10"
     gridtolerance="10"
     guidetolerance="10"
     inkscape:pageopacity="0"
     inkscape:pageshadow="2"
     inkscape:window-width="1353"
     inkscape:window-height="638"
     id="namedview4149"
     showgrid="false"
     fit-margin-top="0"
     fit-margin-left="0"
     fit-margin-right="0"
     fit-margin-bottom="0"
     inkscape:zoom="1.06875"
     inkscape:cx="271.45557"
     inkscape:cy="101.89766"
     inkscape:window-x="26"
     inkscape:window-y="33"
     inkscape:window-maximized="0"
     inkscape:current-layer="t1485119289044" /><style
     type="text/css"
     id="style4142">
	.st0{fill:#141414;}
</style><g
     id="SvgjsUse1326"
     transform="matrix(2,0,0,2,-151.8,-224)"><path
       class="st0"
       d="m 155.4,125.1 c 4.3,0 7.5,1.1 9.4,3.3 1.9,2.2 2.9,5.7 2.9,10.4 l 0,21.2 -9.3,0 0,-19.3 c 0,-2.8 -0.4,-4.9 -1.3,-6.2 -0.9,-1.4 -2.4,-2 -4.6,-2 -2.5,0 -4.4,0.8 -5.5,2.3 -1.1,1.5 -1.7,4.1 -1.7,7.6 l 0,17.6 -9.3,0 0,-34 8.9,0 0,4.7 0.2,0 c 2.2,-3.7 5.6,-5.6 10.3,-5.6 z m 35.1,0 c 3.2,0 6,0.7 8.5,2.2 2.5,1.5 4.5,3.6 5.9,6.5 1.4,2.8 2.1,6.1 2.1,9.8 0,0.4 0,0.9 -0.1,1.7 l -24.5,0 c 0.1,2.7 0.8,4.8 2.1,6.3 1.3,1.5 3.4,2.3 6.1,2.3 1.7,0 3.3,-0.4 4.7,-1.3 1.4,-0.9 2.3,-1.9 2.7,-3.1 l 8.2,0 c -2.4,7.6 -7.7,11.4 -15.9,11.4 -3.1,0 -6,-0.7 -8.6,-2 -2.7,-1.3 -4.8,-3.4 -6.3,-6.1 -1.6,-2.8 -2.4,-6 -2.4,-9.7 0,-3.5 0.8,-6.6 2.4,-9.5 1.6,-2.8 3.7,-5 6.4,-6.4 2.7,-1.4 5.7,-2.1 8.7,-2.1 l 0,0 z m 7.2,14.3 c -0.4,-2.5 -1.2,-4.4 -2.4,-5.5 -1.2,-1.1 -2.9,-1.7 -5.1,-1.7 -2.3,0 -4.1,0.6 -5.4,1.9 -1.3,1.3 -2.1,3.1 -2.3,5.3 l 15.2,0 z m 26.7,-23.6 0,10.2 6.8,0 0,6.2 -6.8,0 0,16.8 c 0,1.6 0.3,2.6 0.8,3.2 0.5,0.5 1.6,0.8 3.2,0.8 1.1,0 2.1,-0.1 2.9,-0.3 l 0,7.3 c -1.3,0.2 -3.2,0.3 -5.5,0.3 -3.6,0 -6.3,-0.6 -8,-1.8 -1.7,-1.2 -2.6,-3.4 -2.6,-6.4 l 0,-19.9 -5.7,0 0,-6.2 5.7,0 0,-10.2 9.2,0 0,0 z m 20.9,-2.7 0,7.7 -9.3,0 0,-7.7 9.3,0 z m 0,12.9 0,34 -9.3,0 0,-34 9.3,0 z m 20.8,-12.9 c 0.8,0 2.4,0.1 4.9,0.3 l 0,7 c -1.2,-0.1 -2.3,-0.2 -3.4,-0.2 -1.4,0 -2.3,0.3 -2.8,0.9 -0.5,0.6 -0.8,1.6 -0.8,3.1 l 0,2 6.4,0 0,6.2 -6.4,0 0,27.6 -9.3,0 0,-27.7 -5.6,0 0,-6.3 5.6,0 0,-2.5 c 0,-3.3 1,-5.9 3,-7.7 2,-1.8 4.8,-2.7 8.4,-2.7 z m 18,0 0,7.7 -9.3,0 0,-7.7 9.3,0 0,0 z m 0,12.9 0,34 -9.3,0 0,-34 9.3,0 0,0 z"
       id="path4145"
       inkscape:connector-curvature="0"
       style="fill:#141414" /></g><path
     class="st0"
     d="m 0,0 0,99.999999 100,0 L 100,0 0,0 Z m 41.8,69.4 c 0,1 -1,1.999999 -2,1.999999 l -4.2,0 c -1,0 -2,-0.799999 -2,-1.999999 l 0,-10.4 c 0,-1.2 1,-2 2,-2 l 4.2,0 c 1,0 2,0.8 2,2 l 0,10.4 z m 28.4,0 c 0,1 -1,1.999999 -2,1.999999 l -5,0 c -0.6,0 -1.2,-0.2 -1.6,-0.799999 L 34,32.8 c -0.4,-0.6 -0.6,-1.4 -0.2,-2 0.4,-0.6 1,-1 1.8,-1 l 5,0 c 0.6,0 1.2,0.2 1.6,0.8 L 62,57.4 62,31.8 c 0,-1 0.8,-2 2,-2 l 4.2,0 c 1,0 2,1 2,2 l 0,37.6 z"
     id="path4147"
     inkscape:connector-curvature="0"
     style="fill:#141414;stroke-width:2" /></svg>