<svg width="279" height="70" xmlns="http://www.w3.org/2000/svg"><path d="M64.79 11.03H54.42v-10h10.37v10zm0 57.21h-10.4v-49.8h10.4v49.8zm59.97-49.8l-14.48 43c-2.49 7-6.92 7.94-10.52 7.94-5.33 0-8.54-2.45-10.44-7.93L77.28 25.71h-4.77v-7.27h12.45l12.44 40c.54 1.71.88 2.73 2.39 2.73 1.51 0 1.88-1 2.38-2.73l12.69-40h9.92-.02zm25.6 0c13.45 0 22.83 8.87 22.83 21.59v7.83c0 12.7-9.38 21.59-22.83 21.59-13.45 0-22.84-8.89-22.84-21.59v-7.88c0-12.71 9.4-21.59 22.84-21.59m0 42.8c8 0 13-6.08 13-13.38v-7.83c0-7.3-4.94-13.39-13-13.39-8.52 0-13 6.08-13 13.39v7.83c0 7.3 4.7 13.38 13 13.38m105.82-41.2a88.57 88.57 0 0 0-19.25-2.3c-13.65 0-22.12 8.61-22.12 22.48v5.46c0 13.86 8.47 22.6 22.12 22.6.32 0 2.74 0 3.85-.1v-8.37c-.42 0-3.54.11-3.85.11-7.42 0-12.42-5.72-12.42-14.24v-5.46c0-8.52 5-14.24 12.42-14.24a72.93 72.93 0 0 1 10.18.64l.56.12v41.55h10.39V21.71c0-.89 0-1.23-1.89-1.73M268.07 1h10.39v67.24h-10.39zM18.28 1H0v67.23h10.81V10.35h6.34c1.35 0 2.49.07 3.64.09 9.37.18 14 3.9 14 11.18v.79c0 6.74-3.7 11.21-13.92 11.21h-3v9c1.05.05 2 .09 3.05.09 14.66 0 25-5.76 25-20.23v-.87c0-15-11.28-20.64-27.61-20.64m173.34 6.68v10.79h16.93v8h-16.93v29c0 4.56 2.91 4.68 7.13 4.68h9.8v8.06h-13.3c-9.81 0-14.18-3.93-14.18-12.74V9.09l10.55-1.44z" fill="#00B5A3"/></svg>