<svg id="Layer_1" data-name="Layer 1" xmlns="http://www.w3.org/2000/svg" xmlns:xlink="http://www.w3.org/1999/xlink" viewBox="0 0 204.58 138.01"><defs><style>.cls-1{fill:url(#New_Gradient_Swatch_1);}.cls-2{fill:#737373;}.cls-3{fill:#8a8c8e;}</style><linearGradient id="New_Gradient_Swatch_1" x1="111.59" y1="52.77" x2="207.31" y2="52.77" gradientUnits="userSpaceOnUse"><stop offset="0.32" stop-color="#8dc641"/><stop offset="0.38" stop-color="#86c442"/><stop offset="0.48" stop-color="#72be43"/><stop offset="0.59" stop-color="#51b445"/><stop offset="0.72" stop-color="#24a749"/><stop offset="0.8" stop-color="#049d4b"/></linearGradient></defs><title>vlingo-outline</title><path class="cls-1" d="M200.82,18.09H187.54a6.51,6.51,0,0,0-6.49,6.49V37.85a6.43,6.43,0,0,0,1.13,3.64,6.49,6.49,0,0,0-4.52-1.85H164.38a6.51,6.51,0,0,0-6.49,6.49V59.41A6.39,6.39,0,0,0,159,63a6.46,6.46,0,0,0-4.48-1.82H141.24a6.5,6.5,0,0,0-4.54,1.87,6.4,6.4,0,0,0,1.15-3.65V46.13a6.52,6.52,0,0,0-6.5-6.49H118.08a6.51,6.51,0,0,0-6.49,6.49V59.41a6.51,6.51,0,0,0,6.49,6.49h13.27A6.5,6.5,0,0,0,135.9,64a6.4,6.4,0,0,0-1.15,3.65V81a6.51,6.51,0,0,0,6.49,6.49h13.28A6.51,6.51,0,0,0,161,81V67.68a6.46,6.46,0,0,0-1.1-3.6,6.45,6.45,0,0,0,4.47,1.82h13.28a6.51,6.51,0,0,0,6.49-6.49V46.13A6.52,6.52,0,0,0,183,42.49a6.45,6.45,0,0,0,4.51,1.85h13.28a6.51,6.51,0,0,0,6.49-6.49V24.58A6.51,6.51,0,0,0,200.82,18.09Z" transform="translate(-9.62 -18.09)"/><path class="cls-2" d="M30.73,142.71H27.38L9.62,109.66h3.52l16,29.82,15.94-29.82H48.5Z" transform="translate(-9.62 -18.09)"/><path class="cls-3" d="M55.56,142.71v-45h3.1v45Z" transform="translate(-9.62 -18.09)"/><path class="cls-3" d="M69.74,101.75a2.37,2.37,0,0,1,2.55-2.31,2.32,2.32,0,0,1,2.5,2.31,2.38,2.38,0,0,1-2.5,2.38A2.42,2.42,0,0,1,69.74,101.75Zm4.14,41H70.77V109.66h3.11Z" transform="translate(-9.62 -18.09)"/><path class="cls-3" d="M85.68,142.71V109.66h3.1v7.61c3-5.48,9-8.82,16.37-8.82,10.59,0,15.46,6.63,15.46,15.82v18.44h-3.1V124.45c0-8.34-4.08-13.2-12.84-13.2-6.94,0-12.72,3.1-15.89,9.79v21.67Z" transform="translate(-9.62 -18.09)"/><path class="cls-3" d="M166.74,139.66c0,11.2-8.22,16.43-18.87,16.43-5.9,0-11.68-1.76-15.58-4.62l1.52-2.37a23.78,23.78,0,0,0,13.82,4.19c10.1,0,16-4.62,16-13.38v-4.45c-3.16,5.18-9.43,8.46-16.67,8.46-11.44,0-18.2-7.18-18.2-17.7s6.76-17.77,18.2-17.77c7.54,0,13.51,3.28,16.67,8.45v-7.24h3.11Zm-3.11-7.6V120.31c-3.41-6.14-9.06-9.06-16.06-9.06-9.86,0-15.64,5.65-15.64,15s5.78,14.9,15.64,14.9C154.57,141.12,160.22,138.2,163.63,132.06Z" transform="translate(-9.62 -18.09)"/><path class="cls-2" d="M174.65,126.22c0-10.84,7.3-17.77,19.77-17.77s19.78,6.93,19.78,17.77S206.9,144,194.42,144,174.65,137.05,174.65,126.22Zm36.39,0c0-9.8-6.7-15-16.62-15s-16.61,5.17-16.61,15,6.69,14.9,16.61,14.9S211,136,211,126.22Z" transform="translate(-9.62 -18.09)"/></svg>